<svg xmlns="http://www.w3.org/2000/svg" width="62" height="53" viewBox="0 0 62 53"><defs><clipPath id="bhn6a"><path d="M-.03 52.153V0h61.695v52.153z"/></clipPath></defs><g><g><g><g><path fill="#7bb541" d="M-.03 52.153V0h61.695v52.153z"/></g><g clip-path="url(#bhn6a)"><path fill="#7bb541" d="M54.752.033H6.884c-3.8 0-6.88 3.012-6.88 6.727v29.268c0 3.715 3.08 6.727 6.88 6.727H34.62l-2.533 9.318 13.341-9.318h9.324c3.8 0 6.88-3.012 6.88-6.727V6.76c0-3.715-3.08-6.727-6.88-6.727"/></g><g clip-path="url(#bhn6a)"><path fill="#7bb541" d="M54.752.033H6.884c-3.8 0-6.88 3.012-6.88 6.727v29.268c0 3.715 3.08 6.727 6.88 6.727H34.62l-2.533 9.318 13.341-9.318h9.324c3.8 0 6.88-3.012 6.88-6.727V6.76c0-3.715-3.08-6.727-6.88-6.727z"/></g></g></g></g></svg>