<svg xmlns="http://www.w3.org/2000/svg" width="87" height="68" viewBox="0 0 87 68"><g><g><path fill="none" stroke="#fff" stroke-miterlimit="20" stroke-width="2" d="M55.348 42.986l-.668.823c-.78.97-2.201 1.11-3.164.33l-.38-.31-2.208 2.715a2.613 2.613 0 0 1-3.677.38l-1.259-1.09-.014.014a4.5 4.5 0 0 1-6.328.654l-6.363-5.759H30V25l3.846-3.84c.422-.42.992-.66 1.59-.66h6.15l-6.01 5.266a5.065 5.065 0 0 0-.31 7.151c1.864 2.032 5.285 2.44 7.374.534l2.344-1.994 10.04 8.358c.963.787 1.111 2.2.324 3.17zM20 25.014h6.75V40.75A2.248 2.248 0 0 1 24.5 43H20zm47 0v17.993h-4.5a2.248 2.248 0 0 1-2.25-2.25V25.014zm-13.846-3.853L56.993 25c-.114 9.09.224 11.478.39 12.02l-3.52-2.858-6.152-4.803c1.292-1.102 1.965-1.528 1.543-1.985-.415-.457-2.272-2.022-2.729-1.608l-5.108 4.532c-3.86 3.191-4.92-.902-3.291-2.357.415-.38 7.175-6.392 7.737-6.392zm4.283 15.903c.066.054.026.214-.053-.044z"/></g></g></svg>