<svg xmlns="http://www.w3.org/2000/svg" width="73" height="79" viewBox="0 0 73 79"><defs><clipPath id="5bhwa"><path d="M20.653 58.534V20.5h31.694v38.034z"/></clipPath></defs><g><g><g><path fill="none" stroke="#fff" stroke-linecap="round" stroke-miterlimit="20" stroke-width="2" d="M20.653 58.534v0V20.5v0h31.694v38.034z"/></g><g clip-path="url(#5bhwa)"><path fill="none" stroke="#fff" stroke-linecap="round" stroke-miterlimit="20" stroke-width="2" d="M43.637 57.958v0h.002a.704.704 0 0 0 .48-.19l7.507-7.02a.69.69 0 0 0 .214-.501.806.806 0 0 0 .12-.419V23.823c0-1.62-1.329-2.94-2.964-2.94H24.003c-1.633 0-2.962 1.32-2.962 2.94V55.21c0 1.621 1.329 2.94 2.962 2.94h19.109a.821.821 0 0 0 .525-.192zm8.401-8.16v0h-4.202c-2.524 0-4.578 2.038-4.578 4.542v3.671"/></g><g clip-path="url(#5bhwa)"><path fill="none" stroke="#fff" stroke-linecap="round" stroke-miterlimit="20" stroke-width="2" d="M27.246 30.012h18.587"/></g><g clip-path="url(#5bhwa)"><path fill="none" stroke="#fff" stroke-linecap="round" stroke-miterlimit="20" stroke-width="2" d="M27.246 35.873h18.587"/></g><g clip-path="url(#5bhwa)"><path fill="none" stroke="#fff" stroke-linecap="round" stroke-miterlimit="20" stroke-width="2" d="M27.246 41.733h18.587"/></g></g></g></svg>