<svg xmlns="http://www.w3.org/2000/svg" width="74" height="85" viewBox="0 0 74 85"><defs><clipPath id="m5uga"><path d="M20 65V20h34v45z"/></clipPath></defs><g><g><g><path fill="none" stroke="#fff" stroke-miterlimit="20" stroke-width="2" d="M20 65v0-45 0h34v45z"/></g><g clip-path="url(#m5uga)"><path fill="none" stroke="#fff" stroke-miterlimit="20" stroke-width="2" d="M51.375 64.261v0H22.618a2.32 2.32 0 0 1-2.32-2.32V26.093v0l5.845-5.606v0h25.232a2.32 2.32 0 0 1 2.32 2.32v39.134a2.32 2.32 0 0 1-2.32 2.32"/></g><g clip-path="url(#m5uga)"><path fill="none" stroke="#fff" stroke-miterlimit="20" stroke-width="2" d="M51.375 64.261v0H22.618a2.32 2.32 0 0 1-2.32-2.32V26.093v0l5.845-5.606v0h25.232a2.32 2.32 0 0 1 2.32 2.32v39.134a2.32 2.32 0 0 1-2.32 2.32z"/></g><g clip-path="url(#m5uga)"><path fill="none" stroke="#fff" stroke-miterlimit="20" stroke-width="2" d="M20.298 26.093v0h6.203v0-5.606 0"/></g><g clip-path="url(#m5uga)"><path fill="none" stroke="#fff" stroke-miterlimit="20" stroke-width="2" d="M20.298 26.093v0h6.203v0-5.606 0"/></g><g clip-path="url(#m5uga)"><path fill="none" stroke="#fff" stroke-miterlimit="20" stroke-width="2" d="M43.557 40.353v0-2.91c0-.9-.73-1.63-1.63-1.63h-2.909v0"/></g><g clip-path="url(#m5uga)"><path fill="none" stroke="#fff" stroke-miterlimit="20" stroke-width="2" d="M43.557 40.353v0-2.91c0-.9-.73-1.63-1.63-1.63h-2.909v0"/></g><g clip-path="url(#m5uga)"><path fill="none" stroke="#fff" stroke-miterlimit="20" stroke-width="2" d="M34.975 35.814v0h-2.909c-.9 0-1.63.73-1.63 1.63v2.909"/></g><g clip-path="url(#m5uga)"><path fill="none" stroke="#fff" stroke-miterlimit="20" stroke-width="2" d="M34.975 35.814v0h-2.909c-.9 0-1.63.73-1.63 1.63v2.909"/></g><g clip-path="url(#m5uga)"><path fill="none" stroke="#fff" stroke-miterlimit="20" stroke-width="2" d="M39.018 48.934v0h2.91c.9 0 1.629-.73 1.629-1.63v-2.909 0"/></g><g clip-path="url(#m5uga)"><path fill="none" stroke="#fff" stroke-miterlimit="20" stroke-width="2" d="M39.018 48.934v0h2.91c.9 0 1.629-.73 1.629-1.63v-2.909 0"/></g><g clip-path="url(#m5uga)"><path fill="none" stroke="#fff" stroke-miterlimit="20" stroke-width="2" d="M30.437 44.395v2.91c0 .9.73 1.63 1.63 1.63h2.908v0"/></g><g clip-path="url(#m5uga)"><path fill="none" stroke="#fff" stroke-miterlimit="20" stroke-width="2" d="M30.437 44.395v2.91c0 .9.73 1.63 1.63 1.63h2.908v0"/></g><g clip-path="url(#m5uga)"><path fill="none" stroke="#fff" stroke-miterlimit="20" stroke-width="2" d="M37.814 44.264v0h-1.501c-.592 0-1.071-.48-1.071-1.071v-1.501c0-.592.48-1.072 1.07-1.072h1.502c.592 0 1.071.48 1.071 1.072v1.5c0 .592-.48 1.072-1.071 1.072"/></g><g clip-path="url(#m5uga)"><path fill="none" stroke="#fff" stroke-miterlimit="20" stroke-width="2" d="M36.242 44.264a1 1 0 0 1-1-1V41.62a1 1 0 0 1 1-1h1.643a1 1 0 0 1 1 1v1.644a1 1 0 0 1-1 1z"/></g></g></g></svg>