<svg xmlns="http://www.w3.org/2000/svg" width="46" height="46" viewBox="0 0 46 46"><g><g><path fill="#fff" d="M23 40.806c-5.444 0-10.322-2.466-13.587-6.325 1.744-3.283 5.157-5.546 9.135-5.546.223 0 .446.038.659.102 1.205.39 2.467.64 3.793.64s2.597-.25 3.793-.64a2.27 2.27 0 0 1 .659-.102c3.978 0 7.391 2.263 9.135 5.546-3.265 3.859-8.143 6.325-13.587 6.325zm0-31.903a8.161 8.161 0 1 1 0 16.323 8.161 8.161 0 0 1 0-16.323zM23 0C10.294 0 0 10.294 0 23s10.294 23 23 23 23-10.294 23-23S35.706 0 23 0z"/></g></g></svg>