<svg width="76" height="109" viewBox="0 0 76 109" fill="none" xmlns="http://www.w3.org/2000/svg">
<path d="M66.6447 13.5576C70.8461 13.5576 74.2521 16.7206 74.2521 20.6209V99.9511C74.2521 103.851 70.8461 107.014 66.6447 107.014H9.17086C4.96946 107.014 1.56348 103.851 1.56348 99.9511V20.6209C1.56348 16.7206 4.96946 13.5576 9.17086 13.5576" stroke="#707070" stroke-width="2.5" stroke-linecap="round"/>
<rect x="9.9502" y="20.8247" width="55.9141" height="78.919" stroke="#707070" stroke-width="2.5" stroke-linecap="round"/>
<path d="M15.541 3.98227C15.541 2.96165 16.3684 2.13428 17.389 2.13428H58.4256C59.4462 2.13428 60.2736 2.96165 60.2736 3.98228V10.6704C60.2736 11.691 59.4462 12.5184 58.4256 12.5184H17.389C16.3684 12.5184 15.541 11.691 15.541 10.6704V3.98227Z" stroke="#707070" stroke-width="2.5" stroke-linecap="round"/>
<circle cx="36.8746" cy="34.3248" r="8.30727" stroke="#DEA827" stroke-width="2.5" stroke-linecap="round"/>
<path d="M24.4129 61.324H51.4116V56.5536C51.4116 50.8755 50.5351 45.8413 45.1811 44.7095C43.7647 45.831 43.1043 48.8631 36.8738 48.8631C30.6434 48.8631 29.8791 45.5776 28.5666 44.7095C23.9851 46.3481 24.4129 51.428 24.4129 56.5536V61.324Z" stroke="#DEA827" stroke-width="2.5" stroke-linecap="round"/>
<line x1="21.5039" y1="68.3809" x2="54.3098" y2="68.3809" stroke="#707070" stroke-width="2.5" stroke-linecap="round"/>
<line x1="21.5039" y1="78.7646" x2="54.3098" y2="78.7646" stroke="#707070" stroke-width="2.5" stroke-linecap="round"/>
<line x1="21.5039" y1="89.1489" x2="54.3098" y2="89.1489" stroke="#707070" stroke-width="2.5" stroke-linecap="round"/>
</svg>
