<svg width="98" height="102" viewBox="0 0 98 102" fill="none" xmlns="http://www.w3.org/2000/svg">
<line x1="38.9561" y1="49.9121" x2="59.4584" y2="49.9121" stroke="#DEA827" stroke-width="2.5" stroke-linecap="round"/>
<line x1="47.957" y1="61.4131" x2="47.957" y2="40.9107" stroke="#DEA827" stroke-width="2.5" stroke-linecap="round"/>
<path d="M6.1997 56.7439C5.98282 54.9826 5.87109 53.1867 5.87109 51.3663C5.87109 34.1408 15.8738 19.2517 30.3883 12.1899" stroke="#707070" stroke-width="2.5" stroke-linecap="round"/>
<path d="M92.7256 46.8877C92.8768 48.3598 92.954 49.855 92.954 51.3682C92.954 67.9924 83.6364 82.4411 69.9385 89.7756" stroke="#707070" stroke-width="2.5" stroke-linecap="round"/>
<path d="M72.0035 51.368C72.0035 63.8435 61.889 73.9596 49.4119 73.9596C36.9348 73.9596 26.8203 63.8435 26.8203 51.368C26.8203 38.8908 36.9348 28.7764 49.4119 28.7764C51.3359 28.7764 53.204 29.0146 54.9867 29.4697" stroke="#707070" stroke-width="2.5" stroke-linecap="round"/>
<circle cx="69.7451" cy="12.5508" r="10.6797" stroke="#707070" stroke-width="2.5" stroke-linecap="round"/>
<path d="M58.8326 14.8372C58.5467 14.921 58.2395 14.9275 57.9421 14.8503C51.2878 13.1103 44.2951 13.3929 37.7115 15.6653C36.2163 16.1927 34.5175 16.0333 33.0749 15.2496C30.9997 14.1192 29.8348 11.9553 30.0336 9.5992C30.2324 7.24474 31.7424 5.30762 33.9753 4.54197C42.8772 1.4958 52.364 1.18198 61.3941 3.6498" stroke="#707070" stroke-width="2.5" stroke-linecap="round"/>
<path d="M81.0762 14.1191C81.6299 13.9778 82.2181 14.1306 82.6321 14.5249C89.4145 20.9787 94.0495 29.2628 96.0442 38.4572C96.5436 40.764 95.6663 43.0577 93.7538 44.446C91.8396 45.8344 89.3833 45.956 87.3443 44.7631C85.9264 43.935 84.9127 42.5631 84.5906 41.0088C83.1316 34.1985 79.7585 28.0683 74.8294 23.2707C74.6092 23.0571 74.4564 22.7909 74.3809 22.5018" stroke="#707070" stroke-width="2.5" stroke-linecap="round"/>
<circle cx="28.6689" cy="89.7729" r="10.6797" stroke="#707070" stroke-width="2.5" stroke-linecap="round"/>
<path d="M39.582 87.4866C39.8679 87.4028 40.1751 87.3962 40.4725 87.4734C47.1268 89.2134 54.1195 88.9308 60.7031 86.6585C62.1982 86.1311 63.8971 86.2904 65.3397 87.0742C67.4148 88.2046 68.5797 90.3684 68.3809 92.7245C68.1821 95.079 66.6722 97.0161 64.4393 97.7818C55.5374 100.828 46.0506 101.142 37.0205 98.6739" stroke="#707070" stroke-width="2.5" stroke-linecap="round"/>
<path d="M17.3384 88.2046C16.7847 88.3459 16.1965 88.1931 15.7824 87.7988C9.00004 81.345 4.36506 73.0608 2.37043 63.8665C1.87095 61.5596 2.74833 59.266 4.66081 57.8776C6.57493 56.4893 9.03126 56.3677 11.0703 57.5605C12.4882 58.3886 13.5019 59.7605 13.824 61.3148C15.283 68.1252 18.6561 74.2553 23.5852 79.0529C23.8053 79.2665 23.9581 79.5327 24.0337 79.8219" stroke="#707070" stroke-width="2.5" stroke-linecap="round"/>
</svg>
