<svg width="90" height="98" viewBox="0 0 90 98" fill="none" xmlns="http://www.w3.org/2000/svg">
<path d="M45.126 93.09C21.0538 93.09 1.54004 73.5762 1.54004 49.504C1.54004 28.5973 16.2576 11.1303 35.8948 6.89697" stroke="#707070" stroke-width="2.5" stroke-linecap="round"/>
<path d="M73.3643 16.2988C82.7552 24.2932 88.7138 36.2049 88.7138 49.5041C88.7138 54.126 87.9928 58.5845 86.658 62.7633C86.451 63.417 86.2276 64.0618 85.9897 64.701" stroke="#707070" stroke-width="2.5" stroke-linecap="round"/>
<path d="M12.1328 44.4642C14.0797 31.61 23.3598 21.1621 35.5748 17.519" stroke="#707070" stroke-width="2.5" stroke-linecap="round"/>
<path d="M42.9702 82.8054C31.9538 82.1026 22.3903 76.055 16.8477 67.2271" stroke="#707070" stroke-width="2.5" stroke-linecap="round"/>
<path d="M69.4746 26.6812C75.0699 32.6506 78.4969 40.6759 78.4969 49.502C78.4969 52.0772 78.2063 54.5834 77.6542 56.9915" stroke="#707070" stroke-width="2.5" stroke-linecap="round"/>
<circle cx="54.7743" cy="13.7489" r="11.8045" stroke="#DEA827" stroke-width="2.5" stroke-linecap="round"/>
<circle cx="67.4871" cy="79.1278" r="17.2528" stroke="#DEA827" stroke-width="2.5" stroke-linecap="round"/>
<circle cx="13.0047" cy="55.5189" r="6.35628" stroke="#DEA827" stroke-width="2.5" stroke-linecap="round"/>
<line x1="22.9932" y1="45.5784" x2="41.2023" y2="27.3693" stroke="#DEA827" stroke-width="2.5" stroke-linecap="round"/>
<line x1="62.6194" y1="56.5645" x2="57.1997" y2="31.3896" stroke="#DEA827" stroke-width="2.5" stroke-linecap="round"/>
</svg>
