<svg width="108" height="104" viewBox="0 0 108 104" fill="none" xmlns="http://www.w3.org/2000/svg">
<path d="M47.7418 57.5021C38.0509 48.3928 34.4708 35.2566 37.0707 23.1372H27.1063C27.0235 23.1372 26.9561 23.2046 26.9561 23.2874V48.156C26.9561 48.2388 26.8887 48.3062 26.8059 48.3062H1.93733C1.85451 48.3062 1.78711 48.3736 1.78711 48.4564V76.7799C1.78711 76.8627 1.85451 76.9282 1.93733 76.9282H26.8059C26.8887 76.9282 26.9561 76.9956 26.9561 77.0784V101.947C26.9561 102.03 27.0235 102.097 27.1063 102.097H55.4298C55.5126 102.097 55.58 102.03 55.58 101.947V77.0784C55.58 76.9956 55.6455 76.9282 55.7283 76.9282H80.5988C80.6816 76.9282 80.7471 76.8627 80.7471 76.7799V66.5556C69.3306 69.0842 56.905 66.1145 47.7418 57.5021Z" stroke="#707070" stroke-width="2.5" stroke-linecap="round"/>
<path d="M105.129 92.094L103.714 92.7777C102.681 93.2765 101.426 92.8393 100.927 91.8052L87.8735 64.7777C87.3728 63.7455 87.81 62.4898 88.8441 61.991L90.2597 61.3074C91.2938 60.8086 92.5476 61.2457 93.0464 62.2799L106.102 89.3073C106.601 90.3396 106.163 91.5953 105.129 92.094Z" stroke="#707070" stroke-width="2.5" stroke-linecap="round"/>
<path d="M87.1475 5.7581C89.0733 6.86161 90.901 8.20586 92.5899 9.79276C104.214 20.7201 104.779 39.0022 93.8514 50.6266C82.9241 62.2511 64.6419 62.8173 53.0175 51.89C41.393 40.9627 40.8288 22.6806 51.7561 11.0561C57.1061 5.3633 64.2183 2.3243 71.4498 1.98535" stroke="#707070" stroke-width="2.5" stroke-linecap="round"/>
<path d="M86.2842 26.7055C86.2842 34.5707 72.3218 52.0247 72.3218 52.0247C72.3218 52.0247 58.3594 34.5707 58.3594 26.7055C58.3594 18.8404 64.6107 12.4639 72.3218 12.4639C80.0329 12.4639 86.2842 18.8404 86.2842 26.7055Z" stroke="#DEA827" stroke-width="2.5" stroke-linecap="round"/>
<ellipse cx="72.3233" cy="26.7058" rx="6.2051" ry="6.33028" stroke="#DEA827" stroke-width="2.5" stroke-linecap="round"/>
</svg>
