<svg width="50" height="50" viewBox="0 0 50 50" fill="none" xmlns="http://www.w3.org/2000/svg">
<circle cx="25.4174" cy="24.5847" r="24.5826" fill="#DEA827"/>
<path d="M27.4928 21.4667C27.8733 21.0395 28.1866 20.6054 28.5775 20.2372C29.7785 19.1052 31.1993 18.5338 32.8581 18.5479C33.7699 18.5558 34.671 18.6213 35.5501 18.8756C37.5603 19.4569 38.7287 20.8408 39.2861 22.8046C39.7037 24.2774 39.781 25.7897 39.7837 27.3068C39.789 30.5063 39.7744 33.7058 39.7811 36.9056C39.7818 37.2048 39.6981 37.2838 39.4029 37.2814C37.755 37.2676 36.1062 37.2673 34.458 37.2817C34.1676 37.2841 34.1052 37.1942 34.1063 36.9204C34.1151 33.8756 34.1175 30.8312 34.1079 27.7864C34.1052 27.0237 34.0569 26.2612 33.8426 25.5193C33.4483 24.1529 32.4701 23.4566 31.0385 23.5321C29.0838 23.6354 28.0674 24.6034 27.8181 26.5913C27.7588 27.0659 27.7304 27.5408 27.7308 28.0191C27.7332 30.9801 27.7278 33.9412 27.7389 36.9019C27.7398 37.1973 27.6661 37.2845 27.3645 37.2817C25.7038 37.2669 24.0434 37.2687 22.3833 37.2807C22.117 37.2824 22.0401 37.2107 22.0405 36.9414C22.0481 31.0793 22.0481 25.217 22.0401 19.3546C22.0398 19.0646 22.1349 18.9974 22.409 18.9995C23.9858 19.0111 25.5628 19.0125 27.1393 18.9984C27.4295 18.996 27.5044 19.0897 27.4981 19.3646C27.482 20.0649 27.4928 20.766 27.4928 21.4667Z" fill="#FEFEFE"/>
<path d="M18.4612 28.1663C18.4612 31.0666 18.4565 33.9665 18.468 36.8669C18.4694 37.1891 18.3891 37.2866 18.0556 37.2827C16.4081 37.2649 14.76 37.2691 13.1122 37.2804C12.8483 37.2824 12.7686 37.2162 12.769 36.9434C12.777 31.0714 12.7763 25.1995 12.7704 19.3275C12.7701 19.0846 12.829 18.9981 13.0871 18.9994C14.7589 19.0105 16.4305 19.0135 18.1022 18.9977C18.423 18.9947 18.467 19.119 18.4663 19.3945C18.4582 22.3184 18.4612 25.2424 18.4612 28.1663Z" fill="#FEFEFE"/>
<path d="M18.9156 13.1807C18.9177 15.0014 17.4394 16.4849 15.6227 16.4855C13.8298 16.4863 12.3392 15.0014 12.3332 13.2088C12.3272 11.3966 13.8167 9.9043 15.6299 9.90601C17.4301 9.90772 18.9139 11.3863 18.9156 13.1807Z" fill="#FEFEFE"/>
</svg>
