<svg width="50" height="50" viewBox="0 0 50 50" fill="none" xmlns="http://www.w3.org/2000/svg">
<path d="M25.0379 0.0020752C11.4594 0.0020752 0.450928 11.0105 0.450928 24.5892C0.450928 38.1678 11.4594 49.1762 25.0379 49.1762C38.6166 49.1762 49.625 38.1678 49.625 24.5892C49.625 11.0105 38.6166 0.0020752 25.0379 0.0020752ZM41.2045 14.5575C41.2045 14.639 41.203 14.8421 41.034 15.0689C40.2841 16.0798 39.4718 16.9854 38.4639 17.7413C38.3187 17.851 38.0726 17.9666 38.0726 18.1741C38.0726 23.4835 36.7163 28.7853 32.8463 32.6302C27.9194 37.526 20.5261 38.8585 13.9628 37.0457C12.6926 36.6944 11.4771 36.2038 10.3106 35.5858C9.92526 35.3738 9.54581 35.1559 9.1723 34.9099C9.07892 34.8342 9.00775 34.7645 9.08932 34.7142C9.16785 34.6742 9.23013 34.6712 9.52359 34.7142C11.3586 34.895 13.2499 34.6223 14.987 34.0146C15.9431 33.6811 17.993 33.0096 18.5844 32.1085C18.5977 32.0877 18.6125 32.0877 18.6274 32.0655C18.3872 32.0106 18.1486 32.0106 17.91 31.9677C16.1269 31.4592 13.7449 30.564 12.6422 27.5566C12.5725 27.3817 12.6422 27.2912 12.8245 27.3253C14.2934 27.4409 14.8195 27.3609 15.3324 27.2482C15.0448 27.1993 14.7499 27.1015 14.4831 26.9889C12.2361 26.1336 10.5952 23.9429 10.2958 21.5729C10.2617 21.3001 10.2395 21.0674 10.2543 20.8154C10.2676 20.639 10.3462 20.5827 10.5004 20.6805C11.655 21.2778 12.952 21.4187 13.0572 21.3979C12.7682 21.1727 12.5028 20.9266 12.242 20.6805C10.2943 18.8351 9.53839 15.0807 11.0977 12.7448C11.2237 12.555 11.3082 12.555 11.4623 12.7314C15.0255 16.7912 19.4144 18.6855 24.7089 19.474C24.8497 19.4948 24.8631 19.474 24.8423 19.3184C24.7044 18.386 24.6867 17.4731 24.912 16.5511C25.1447 15.595 25.6012 14.6924 26.2208 13.929C26.8196 13.1909 27.5711 12.5788 28.413 12.1385C29.2534 11.6982 30.1827 11.4315 31.1299 11.3708C32.1037 11.307 33.0909 11.4641 33.9935 11.8317C34.6828 12.1119 35.2919 12.4927 35.8611 12.976C35.9812 13.0753 36.0864 13.1938 36.199 13.3214C36.2687 13.391 36.3517 13.4191 36.4644 13.391C37.8177 13.053 39.0894 12.5743 40.3196 11.9162C40.3759 11.8881 40.4219 11.8732 40.4915 11.9014C40.5479 11.9443 40.5272 12.014 40.499 12.0704C40.2796 12.7892 39.8898 13.4547 39.4199 14.0388C39.1116 14.4211 38.3438 15.3682 37.8206 15.4557C38.9234 15.2704 40.0513 14.9903 41.0726 14.5294C41.203 14.4701 41.2045 14.4434 41.2045 14.5294V14.5575Z" fill="#DEA827"/>
</svg>
