<svg width="50" height="50" viewBox="0 0 50 50" fill="none" xmlns="http://www.w3.org/2000/svg">
<path d="M24.971 0.0020752C11.3909 0.0020752 0.383972 11.0105 0.383972 24.5892C0.383972 38.1678 11.3909 49.1762 24.971 49.1762C38.5496 49.1762 49.5566 38.1678 49.5566 24.5892C49.5566 11.0105 38.5496 0.0020752 24.971 0.0020752ZM25.4794 38.2715C23.062 38.2715 20.6756 37.6609 18.5381 36.5017L10.5905 38.6317L12.7101 30.7225C11.5095 28.5585 10.878 26.1321 10.878 23.6687C10.878 15.6188 17.4279 9.06738 25.4794 9.06738C33.5308 9.06738 40.0807 15.6188 40.0807 23.6687C40.0807 31.7202 33.5308 38.2715 25.4794 38.2715Z" fill="#DEA827"/>
</svg>
