<svg width="50" height="50" viewBox="0 0 50 50" fill="none" xmlns="http://www.w3.org/2000/svg">
<path d="M24.5855 0.0020752C11.0069 0.0020752 -6.10352e-05 11.0105 -6.10352e-05 24.5892C-6.10352e-05 38.1678 11.0069 49.1762 24.5855 49.1762C38.1656 49.1762 49.1725 38.1678 49.1725 24.5892C49.1725 11.0105 38.1656 0.0020752 24.5855 0.0020752ZM34.2644 12.4156H31.3844C28.546 12.4156 27.6626 14.1765 27.6626 15.9819V20.267H33.9961L32.9838 26.8688H27.6626V42.8278H20.5242V26.8688H14.7258V20.267H20.5242V15.2349C20.5242 9.51056 23.9348 6.349 29.1507 6.349C31.6497 6.349 34.2644 6.7951 34.2644 6.7951V12.4156Z" fill="#DEA827"/>
</svg>
