<?xml version="1.0" standalone="no"?>
<!DOCTYPE svg PUBLIC "-//W3C//DTD SVG 20010904//EN"
 "http://www.w3.org/TR/2001/REC-SVG-20010904/DTD/svg10.dtd">
<svg version="1.0" xmlns="http://www.w3.org/2000/svg"
 width="82.000000pt" height="82.000000pt" viewBox="0 0 82.000000 82.000000"
 preserveAspectRatio="xMidYMid meet">
<metadata>
Created by potrace 1.14, written by Peter Selinger 2001-2017
</metadata>
<g transform="translate(0.000000,82.000000) scale(0.100000,-0.100000)"
fill="#000000" stroke="none">
<path d="M387 693 c-11 -18 -97 -216 -95 -218 2 -1 15 -5 29 -9 19 -4 29 -1
33 10 4 11 18 14 53 12 45 -3 47 -5 62 -45 14 -40 18 -43 53 -43 21 0 38 3 37
8 0 4 -28 70 -63 147 -49 109 -67 141 -83 143 -12 2 -23 0 -26 -5z m38 -145
c6 -25 5 -28 -19 -28 -29 0 -31 6 -16 46 12 31 25 24 35 -18z"/>
<path d="M201 316 c-20 -24 14 -67 40 -50 13 7 11 34 -2 34 -5 0 -7 -4 -4 -10
3 -5 -1 -10 -9 -10 -24 0 -19 29 7 40 22 9 22 9 1 9 -12 1 -27 -5 -33 -13z"/>
<path d="M488 318 c5 -7 12 -22 15 -33 4 -16 5 -14 6 7 0 14 7 29 14 31 6 3
-1 6 -17 6 -22 1 -26 -2 -18 -11z"/>
<path d="M320 296 c0 -13 5 -28 10 -31 6 -3 10 3 10 14 0 12 0 24 1 28 0 4 -4
9 -10 11 -6 2 -11 -8 -11 -22z"/>
<path d="M260 301 c0 -5 3 -16 6 -24 8 -21 44 -9 44 14 0 24 -17 25 -23 2 -4
-17 -5 -17 -6 0 -1 17 -21 25 -21 8z"/>
<path d="M357 303 c-14 -13 -7 -35 9 -29 8 3 12 2 9 -4 -3 -6 -2 -10 3 -10 11
0 23 36 14 44 -7 8 -27 7 -35 -1z"/>
<path d="M411 288 c0 -21 1 -22 8 -3 8 19 8 19 19 0 11 -19 11 -19 12 3 0 15
-6 22 -20 22 -14 0 -20 -6 -19 -22z"/>
<path d="M540 300 c13 -8 12 -10 -2 -10 -20 0 -24 -15 -8 -25 6 -3 10 -2 10 4
0 6 6 8 14 5 11 -4 13 0 9 15 -3 12 -13 21 -22 21 -14 0 -14 -2 -1 -10z"/>
<path d="M580 285 c0 -14 -1 -28 -2 -32 -2 -5 7 -9 20 -11 15 -2 22 2 22 12 0
9 -8 16 -17 16 -17 1 -17 1 0 11 23 13 22 29 -3 29 -15 0 -20 -7 -20 -25z"/>
<path d="M422 205 c0 -22 2 -32 5 -22 5 18 5 18 19 0 14 -17 14 -16 12 7 -2
14 -7 24 -13 22 -5 -2 -12 5 -16 15 -5 12 -7 4 -7 -22z"/>
<path d="M520 206 c0 -28 4 -34 19 -33 18 1 27 37 9 37 -4 0 -8 7 -8 15 0 8
-4 15 -10 15 -5 0 -10 -15 -10 -34z"/>
<path d="M212 205 c-15 -34 -17 -32 18 -32 17 0 30 2 30 3 0 13 -21 54 -28 54
-5 0 -14 -11 -20 -25z"/>
<path d="M380 201 c0 -17 4 -31 9 -31 5 0 9 11 9 25 0 14 -4 28 -9 31 -5 3 -9
-9 -9 -25z"/>
<path d="M335 210 c-3 -5 -19 -7 -35 -3 -29 5 -30 4 -30 -33 0 -35 1 -36 14
-19 9 12 26 19 47 20 23 0 35 5 37 16 3 18 -24 34 -33 19z m-35 -20 c0 -5 -4
-10 -10 -10 -5 0 -10 5 -10 10 0 6 5 10 10 10 6 0 10 -4 10 -10z"/>
<path d="M583 213 c-7 -3 -13 -13 -13 -24 0 -13 7 -19 23 -18 21 0 21 1 2 9
-17 7 -17 9 -2 9 9 1 17 5 17 10 0 13 -12 19 -27 14z"/>
<path d="M470 190 c0 -14 6 -20 23 -19 21 0 21 1 2 9 -17 7 -17 9 -2 9 24 1
22 21 -3 21 -13 0 -20 -7 -20 -20z"/>
</g>
</svg>
