<svg width="113" height="105" viewBox="0 0 113 105" fill="none" xmlns="http://www.w3.org/2000/svg">
<path d="M33.944 64.8122C33.7332 65.0229 33.5224 65.0932 33.3116 65.0932H28.1138C27.903 65.0932 27.6922 65.0229 27.4815 64.8122C27.3409 64.6014 27.2004 64.3906 27.2004 64.1798V49.9227C27.2004 49.1498 27.1302 48.5175 27.0599 48.0257C26.9911 47.5339 26.8506 47.1123 26.5695 46.761C26.2885 46.4097 26.0074 46.1989 25.5859 46.1287C25.1643 45.9881 24.6022 45.9178 23.9699 45.9178C23.3375 45.9178 22.7052 46.0583 22.004 46.2692C21.3717 46.5502 20.6691 46.8312 19.8962 47.2528V64.1798C19.8962 64.3906 19.826 64.6014 19.6152 64.8122C19.4746 65.0229 19.2639 65.0932 18.9828 65.0932H13.7865C13.5757 65.0932 13.3649 65.0229 13.1541 64.8122C12.9433 64.6014 12.873 64.3906 12.873 64.1798V41.2821C12.873 41.0728 12.9433 40.862 13.1541 40.6512C13.2946 40.5107 13.5054 40.3702 13.7865 40.3702H18.6315C18.8423 40.3702 19.0531 40.4404 19.2639 40.6512C19.4044 40.7917 19.5449 41.0025 19.5449 41.2821V42.336C20.7393 41.4929 21.8635 40.9323 22.916 40.5809C23.9699 40.2297 25.1643 40.0891 26.5695 40.0891C28.1138 40.0891 29.3785 40.3702 30.3622 40.862C31.3458 41.3524 32.1172 42.055 32.6793 42.9684C33.2414 43.8818 33.5927 44.8654 33.8737 46.0583C34.0845 47.2528 34.225 48.5175 34.225 49.8525V64.1798C34.225 64.3906 34.1548 64.6014 33.944 64.8122Z" stroke="#707070" stroke-width="2.5" stroke-linecap="round"/>
<path d="M58.6668 58.9117C58.175 60.317 57.4738 61.4411 56.6307 62.4247C55.7173 63.4069 54.5931 64.1096 53.2596 64.6716C51.9247 65.2338 50.379 65.4445 48.6239 65.4445C46.8674 65.4445 45.3216 65.1635 43.9881 64.6716C42.6532 64.1096 41.529 63.4069 40.6156 62.4247C39.7037 61.4411 39.0011 60.317 38.5093 58.9117C38.0174 57.5079 37.8066 55.9622 37.8066 54.2774V51.2562C37.8066 49.5714 38.0174 47.9554 38.5093 46.6205C39.0011 45.2167 39.7037 44.0925 40.6156 43.1089C41.529 42.1252 42.6532 41.4226 43.9881 40.862C45.3216 40.2999 46.8674 40.0891 48.6239 40.0891C50.379 40.0891 51.9247 40.3702 53.2596 40.862C54.5931 41.4226 55.7173 42.1252 56.6307 43.1089C57.5441 44.0925 58.2453 45.2167 58.6668 46.6205C59.1586 48.0257 59.3694 49.5714 59.3694 51.2562V54.2774C59.3694 55.9622 59.1586 57.5079 58.6668 58.9117ZM52.4165 51.2562C52.4165 47.7446 51.1518 45.9881 48.6239 45.9881C47.3592 45.9881 46.4458 46.4097 45.7432 47.3231C45.1108 48.1662 44.7596 49.5012 44.7596 51.2562V54.2774C44.7596 56.0325 45.1108 57.3675 45.7432 58.2106C46.3755 59.1225 47.3592 59.5441 48.6239 59.5441C51.1518 59.5441 52.4165 57.789 52.4165 54.2774V51.2562Z" stroke="#707070" stroke-width="2.5" stroke-linecap="round"/>
<path d="M95.5426 41.3524L91.75 62.0735C91.6095 62.7058 91.4689 63.1962 91.1879 63.5475C90.9771 63.9691 90.6258 64.2501 90.3448 64.4609C89.9935 64.6716 89.6422 64.8122 89.2206 64.8824C88.799 64.9527 88.3789 65.0229 87.9574 65.0229H85.3577C84.3038 65.0229 83.5324 64.7419 82.9703 64.2501C82.4082 63.7583 81.9866 63.0571 81.7759 62.2842L78.8966 51.0455C78.8966 50.9049 78.8264 50.8347 78.6858 50.8347C78.5453 50.8347 78.4751 50.9049 78.4751 51.0455L75.5944 62.2842C75.3836 63.1274 74.9635 63.7583 74.4014 64.2501C73.8393 64.7419 72.9962 65.0229 72.0125 65.0229H69.4143C68.5009 65.0229 67.7281 64.8122 67.0255 64.4609C66.3243 64.1096 65.8325 63.2665 65.6217 62.0032L61.8291 41.2821V41.1431C61.8291 40.9323 61.8994 40.7917 61.9696 40.6512C62.1101 40.5107 62.2492 40.4404 62.46 40.4404H67.6578C67.9389 40.4404 68.1496 40.5107 68.2902 40.5809C68.4307 40.6512 68.5009 40.862 68.5712 41.2119L71.0991 57.5782C71.1694 57.9296 71.2397 58.1403 71.3802 58.1403C71.5207 58.1403 71.6612 57.9296 71.7315 57.5782L74.6122 46.1989C74.823 45.4275 75.104 44.9357 75.4539 44.6547C75.8052 44.3736 76.3672 44.233 76.9996 44.233H80.5112C81.2138 44.233 81.7056 44.3736 82.0569 44.6547C82.4082 44.9357 82.6892 45.4275 82.9001 46.1989L85.7793 57.5782C85.8495 57.9296 85.9901 58.1403 86.1306 58.1403C86.2711 58.1403 86.3414 57.9296 86.4116 57.5782L88.9395 41.2119C89.0098 40.9323 89.0801 40.7215 89.2206 40.5809C89.3611 40.5107 89.5719 40.4404 89.853 40.4404H95.0508C95.2616 40.4404 95.4021 40.5107 95.5426 40.6512C95.6831 40.7917 95.6831 40.9323 95.6831 41.1431L95.5426 41.3524ZM95.5426 41.3524V41.3524Z" stroke="#707070" stroke-width="2.5" stroke-linecap="round"/>
<path d="M12.3721 74.0661H80.7096V84.1573C80.7096 84.756 80.8589 86.4013 81.8308 87.4479C82.5041 88.1944 83.6254 89.017 85.1945 89.0917C85.1945 89.0917 87.2131 89.241 88.709 87.3717C90.5783 85.0546 109.49 56.9473 109.49 56.9473C109.49 56.9473 110.837 55.302 110.837 52.6116C110.837 49.8451 109.49 48.2013 109.49 48.2013C109.49 48.2013 90.5783 20.0179 88.709 17.7008C87.2131 15.8315 85.1945 15.9062 85.1945 15.9062C83.6254 15.9062 82.5041 16.6542 81.8308 17.4022C80.8589 18.5234 80.7096 20.3912 80.7096 21.0645V31.2319H12.9927" stroke="#707070" stroke-width="2.5" stroke-linecap="round"/>
<path d="M80.8987 94.376C72.8392 99.8212 63.1227 103 52.6641 103C24.7734 103 2.16406 80.3911 2.16406 52.5005C2.16406 24.6099 24.7734 2.00049 52.6641 2.00049C63.1227 2.00049 72.8392 5.17981 80.8987 10.625" stroke="#DEA827" stroke-width="2.5" stroke-linecap="round"/>
</svg>
