<svg width="87" height="102" viewBox="0 0 87 102" fill="none" xmlns="http://www.w3.org/2000/svg">
<rect x="16.0908" y="1.82739" width="41.5247" height="10.3812" stroke="#707070" stroke-width="2.5" stroke-linecap="round"/>
<path d="M35.2175 93.1817H10.9505C5.76406 93.1817 1.55762 88.9753 1.55762 83.7889V15.3729C1.55762 10.1864 5.76406 5.97998 10.9505 5.97998H16.0912" stroke="#707070" stroke-width="2.5" stroke-linecap="round"/>
<path d="M57.6152 5.97998H62.756C67.9424 5.97998 72.1489 10.1864 72.1489 15.3729V44.4339" stroke="#707070" stroke-width="2.5" stroke-linecap="round"/>
<path d="M41.6864 42.2476C45.7163 40.296 50.2405 39.1997 55.0199 39.1997C71.9329 39.1997 85.6444 52.9111 85.6444 69.8241C85.6444 86.7392 71.9329 100.449 55.0199 100.449C38.1069 100.449 24.3955 86.7392 24.3955 69.8241C24.3955 62.3518 27.0718 55.5044 31.5191 50.1892" stroke="#707070" stroke-width="2.5" stroke-linecap="round"/>
<path d="M66.8504 89.5153C63.3955 91.5957 59.3469 92.7916 55.02 92.7916C42.3363 92.7916 32.0527 82.508 32.0527 69.8243C32.0527 57.1386 42.3363 46.855 55.02 46.855C67.7058 46.855 77.9894 57.1386 77.9894 69.8243C77.9894 72.9844 77.3499 75.997 76.1934 78.7397" stroke="#707070" stroke-width="2.5" stroke-linecap="round"/>
<line x1="13.1885" y1="27.5686" x2="62.5943" y2="27.5686" stroke="#707070" stroke-width="2.5" stroke-linecap="round"/>
<line x1="13.1885" y1="40.0259" x2="27.2983" y2="40.0259" stroke="#707070" stroke-width="2.5" stroke-linecap="round"/>
<line x1="13.1885" y1="52.4834" x2="18.9934" y2="52.4834" stroke="#707070" stroke-width="2.5" stroke-linecap="round"/>
<line x1="72.1062" y1="83.1753" x2="72.3948" y2="82.8485" stroke="#707070" stroke-width="2.5" stroke-linecap="round"/>
<path d="M61.3612 63.4232L67.1663 65.4226C68.1795 65.7714 68.5429 67.0171 67.8764 67.858L64.0603 72.6645C63.8464 72.9323 63.7302 73.2624 63.7239 73.605L63.616 79.7423C63.5973 80.8137 62.5239 81.5445 61.519 81.1708L55.7678 79.026C55.4481 78.9077 55.0972 78.8973 54.7712 78.997L48.8997 80.7908C47.874 81.1043 46.8483 80.3112 46.894 79.2399L47.1556 73.1067C47.1701 72.7641 47.0705 72.4278 46.8753 72.1475L43.354 67.1188C42.7395 66.2406 43.1776 65.0198 44.2094 64.7312L50.1246 63.0847C50.4527 62.9934 50.7433 62.7961 50.9489 62.5241L54.6425 57.6201C55.2882 56.7647 56.5859 56.8041 57.1797 57.6969L60.5722 62.8127C60.7612 63.0972 61.0373 63.311 61.3612 63.4232Z" stroke="#DEA827" stroke-width="2.5" stroke-linecap="round"/>
</svg>
