<svg width="111" height="99" viewBox="0 0 111 99" fill="none" xmlns="http://www.w3.org/2000/svg">
<path d="M93.6656 50.6688C93.6656 51.7142 93.631 52.7509 93.5631 53.779C91.9632 77.8482 71.9328 96.8751 47.4593 96.8751C21.9404 96.8751 1.25293 76.1877 1.25293 50.6688C1.25293 25.1498 21.9404 4.4624 47.4593 4.4624C53.2539 4.4624 58.7986 5.52948 63.9087 7.47595" stroke="#707070" stroke-width="2.5" stroke-linecap="round"/>
<path d="M83.1682 49.2044C83.187 49.6896 83.1971 50.1776 83.1971 50.6686C83.1971 70.4059 67.1967 86.4063 47.4594 86.4063C27.7221 86.4063 11.7217 70.4059 11.7217 50.6686C11.7217 40.8786 15.6593 32.007 22.0358 25.5525" stroke="#707070" stroke-width="2.5" stroke-linecap="round"/>
<path d="M47.459 14.9309C51.5295 14.9309 55.4397 15.611 59.0842 16.8643" stroke="#707070" stroke-width="2.5" stroke-linecap="round"/>
<path d="M31.1094 18.8829C32.7194 18.0526 34.4016 17.3408 36.1429 16.7603" stroke="#707070" stroke-width="2.5" stroke-linecap="round"/>
<path d="M68.7875 73.9363C67.371 63.7882 58.6235 55.9028 48.1015 55.9028H46.8221C36.2871 55.9028 27.531 63.807 26.1318 73.9739" stroke="#707070" stroke-width="2.5" stroke-linecap="round"/>
<path d="M37.3516 32.5801C37.3516 28.7141 40.4856 25.5801 44.3516 25.5801H50.5668C54.4328 25.5801 57.5668 28.7141 57.5668 32.5801V46.0151C57.5668 49.8811 54.4328 53.0151 50.5669 53.0151H44.3516C40.4856 53.0151 37.3516 49.8811 37.3516 46.0151V32.5801Z" stroke="#707070" stroke-width="2.5" stroke-linecap="round"/>
<path d="M108.826 14.6956H95.884V1.75488H79.4158V14.697H66.4736V31.1652H79.4158V44.1073H95.8854V31.1652H108.828L108.826 14.6956Z" stroke="#DEA827" stroke-width="2.5" stroke-linecap="round"/>
</svg>
