<svg width="124" height="93" viewBox="0 0 124 93" fill="none" xmlns="http://www.w3.org/2000/svg">
<path d="M62.1641 30.5816C74.1416 18.604 93.5638 18.604 105.541 30.5816C117.519 42.5591 117.519 61.9813 105.541 73.9588C93.5638 85.9364 74.1416 85.9364 62.1641 73.9588" stroke="#707070" stroke-width="2.5" stroke-linecap="round"/>
<path d="M56.5752 24.9947C71.6397 9.93016 96.0636 9.93016 111.126 24.9947C126.19 40.0592 126.19 64.4831 111.126 79.5454C96.0636 94.6099 71.6397 94.6099 56.5752 79.5454" stroke="#707070" stroke-width="2.5" stroke-linecap="round"/>
<path d="M93.6012 62.6647C87.8611 68.4048 78.5542 68.4048 72.8119 62.6647C67.0718 56.9246 67.0718 47.6177 72.8119 41.8754C78.5542 36.1353 87.8611 36.1353 93.6012 41.8754" stroke="#DEA827" stroke-width="2.5" stroke-linecap="round"/>
<line x1="65.3838" y1="46.2515" x2="80.0493" y2="46.2515" stroke="#DEA827" stroke-width="2.5" stroke-linecap="round"/>
<line x1="65.3838" y1="55.7878" x2="80.0493" y2="55.7878" stroke="#DEA827" stroke-width="2.5" stroke-linecap="round"/>
<path d="M41.3148 21.811L54.728 45.4334C60.2227 55.4326 57.3723 67.5548 48.3591 72.5083C39.3458 77.4619 27.5829 73.3716 22.0882 63.3724L4.52828 31.4227C-0.968642 21.4236 1.88389 9.30141 10.8972 4.34782C15.3556 1.89842 20.4867 1.65961 25.1992 3.25677" stroke="#707070" stroke-width="2.5" stroke-linecap="round"/>
<line x1="19.8245" y1="43.0154" x2="38.7536" y2="32.6122" stroke="#707070" stroke-width="2.5" stroke-linecap="round"/>
<path d="M35.1719 12.9868L38.2357 17.845" stroke="#707070" stroke-width="2.5" stroke-linecap="round"/>
</svg>
